# Made in Blockbench 4.2.2
mtllib materials.mtl

o pilar
v -0.4375 0.4375 -0.4375
v -0.4375 0.4375 -0.5
v -0.4375 -0.4375 -0.4375
v -0.4375 -0.4375 -0.5
v -0.5 0.4375 -0.5
v -0.5 0.4375 -0.4375
v -0.5 -0.4375 -0.5
v -0.5 -0.4375 -0.4375
vt 0 1
vt 0.0625 1
vt 0.0625 0.125
vt 0 0.125
vt 0 1
vt 0.0625 1
vt 0.0625 0.125
vt 0 0.125
vt 0 1
vt 0.0625 1
vt 0.0625 0.125
vt 0 0.125
vt 0 1
vt 0.0625 1
vt 0.0625 0.125
vt 0 0.125
vn 0 0 -1
vn 1 0 0
vn 0 0 1
vn -1 0 0
usemtl m_side
f 4/4/1 7/3/1 5/2/1 2/1/1
f 3/8/2 4/7/2 2/6/2 1/5/2
f 8/12/3 3/11/3 1/10/3 6/9/3
f 7/16/4 8/15/4 6/14/4 5/13/4
o pilar
v -0.4375 0.4375 0.5
v -0.4375 0.4375 0.4375
v -0.4375 -0.4375 0.5
v -0.4375 -0.4375 0.4375
v -0.5 0.4375 0.4375
v -0.5 0.4375 0.5
v -0.5 -0.4375 0.4375
v -0.5 -0.4375 0.5
vt 0 1
vt 0.0625 1
vt 0.0625 0.125
vt 0 0.125
vt 0 1
vt 0.0625 1
vt 0.0625 0.125
vt 0 0.125
vt 0 1
vt 0.0625 1
vt 0.0625 0.125
vt 0 0.125
vt 0 1
vt 0.0625 1
vt 0.0625 0.125
vt 0 0.125
vn 0 0 -1
vn 1 0 0
vn 0 0 1
vn -1 0 0
usemtl m_side
f 12/20/5 15/19/5 13/18/5 10/17/5
f 11/24/6 12/23/6 10/22/6 9/21/6
f 16/28/7 11/27/7 9/26/7 14/25/7
f 15/32/8 16/31/8 14/30/8 13/29/8
o pilar
v 0.5 0.4375 0.5
v 0.5 0.4375 0.4375
v 0.5 -0.4375 0.5
v 0.5 -0.4375 0.4375
v 0.4375 0.4375 0.4375
v 0.4375 0.4375 0.5
v 0.4375 -0.4375 0.4375
v 0.4375 -0.4375 0.5
vt 0 1
vt 0.0625 1
vt 0.0625 0.125
vt 0 0.125
vt 0 1
vt 0.0625 1
vt 0.0625 0.125
vt 0 0.125
vt 0 1
vt 0.0625 1
vt 0.0625 0.125
vt 0 0.125
vt 0 1
vt 0.0625 1
vt 0.0625 0.125
vt 0 0.125
vn 0 0 -1
vn 1 0 0
vn 0 0 1
vn -1 0 0
usemtl m_side
f 20/36/9 23/35/9 21/34/9 18/33/9
f 19/40/10 20/39/10 18/38/10 17/37/10
f 24/44/11 19/43/11 17/42/11 22/41/11
f 23/48/12 24/47/12 22/46/12 21/45/12
o pilar
v 0.5 0.4375 -0.4375
v 0.5 0.4375 -0.5
v 0.5 -0.4375 -0.4375
v 0.5 -0.4375 -0.5
v 0.4375 0.4375 -0.5
v 0.4375 0.4375 -0.4375
v 0.4375 -0.4375 -0.5
v 0.4375 -0.4375 -0.4375
vt 0 1
vt 0.0625 1
vt 0.0625 0.125
vt 0 0.125
vt 0 1
vt 0.0625 1
vt 0.0625 0.125
vt 0 0.125
vt 0 1
vt 0.0625 1
vt 0.0625 0.125
vt 0 0.125
vt 0 1
vt 0.0625 1
vt 0.0625 0.125
vt 0 0.125
vn 0 0 -1
vn 1 0 0
vn 0 0 1
vn -1 0 0
usemtl m_side
f 28/52/13 31/51/13 29/50/13 26/49/13
f 27/56/14 28/55/14 26/54/14 25/53/14
f 32/60/15 27/59/15 25/58/15 30/57/15
f 31/64/16 32/63/16 30/62/16 29/61/16
o forge
v 0.4375 0.40625 0.4375
v 0.4375 0.40625 -0.4375
v 0.4375 -0.46875 0.4375
v 0.4375 -0.46875 -0.4375
v -0.4375 0.40625 -0.4375
v -0.4375 0.40625 0.4375
v -0.4375 -0.46875 -0.4375
v -0.4375 -0.46875 0.4375
vt 0 1
vt 1 1
vt 1 0
vt 0 0
vt 0 1
vt 1 1
vt 1 0
vt 0 0
vt 0 1
vt 1 1
vt 1 0
vt 0 0
vt 0 1
vt 1 1
vt 1 0
vt 0 0
vt 0 1
vt 1 1
vt 1 0
vt 0 0
vn 0 0 -1
vn 1 0 0
vn 0 0 1
vn -1 0 0
vn 0 1 0
usemtl m_front
f 36/68/17 39/67/17 37/66/17 34/65/17
f 35/72/18 36/71/18 34/70/18 33/69/18
f 40/76/19 35/75/19 33/74/19 38/73/19
f 39/80/20 40/79/20 38/78/20 37/77/20
usemtl m_side
f 38/84/21 33/83/21 34/82/21 37/81/21
o heater
v 0.40625 0.4375 0.40625
v 0.40625 0.4375 -0.390625
v 0.40625 0.375 0.40625
v 0.40625 0.375 -0.390625
v -0.390625 0.4375 -0.390625
v -0.390625 0.4375 0.40625
v -0.390625 0.375 -0.390625
v -0.390625 0.375 0.40625
vt 0.3125 0.625
vt 0.9375 0.625
vt 0.9375 0.5625
vt 0.3125 0.5625
vt 0.3125 0.625
vt 0.9375 0.625
vt 0.9375 0.5625
vt 0.3125 0.5625
vt 0.3125 0.625
vt 0.9375 0.625
vt 0.9375 0.5625
vt 0.3125 0.5625
vt 0.3125 0.625
vt 0.9375 0.625
vt 0.9375 0.5625
vt 0.3125 0.5625
vn 0 0 -1
vn 1 0 0
vn 0 0 1
vn -1 0 0
usemtl m_side
f 44/88/22 47/87/22 45/86/22 42/85/22
f 43/92/23 44/91/23 42/90/23 41/89/23
f 48/96/24 43/95/24 41/94/24 46/93/24
f 47/100/25 48/99/25 46/98/25 45/97/25
o forge_top
v 0.5 0.5 0.5
v 0.5 0.5 -0.5
v 0.5 0.4375 0.5
v 0.5 0.4375 -0.5
v -0.5 0.5 -0.5
v -0.5 0.5 0.5
v -0.5 0.4375 -0.5
v -0.5 0.4375 0.5
vt 0 1
vt 1 1
vt 1 0.9375
vt 0 0.9375
vt 0 1
vt 1 1
vt 1 0.9375
vt 0 0.9375
vt 0 1
vt 1 1
vt 1 0.9375
vt 0 0.9375
vt 0 1
vt 1 1
vt 1 0.9375
vt 0 0.9375
vt 0 1
vt 1 1
vt 1 0
vt 0 0
vt 0 1
vt 1 1
vt 1 0
vt 0 0
vn 0 0 -1
vn 1 0 0
vn 0 0 1
vn -1 0 0
vn 0 1 0
vn 0 -1 0
usemtl m_side
f 52/104/26 55/103/26 53/102/26 50/101/26
f 51/108/27 52/107/27 50/106/27 49/105/27
f 56/112/28 51/111/28 49/110/28 54/109/28
f 55/116/29 56/115/29 54/114/29 53/113/29
f 54/120/30 49/119/30 50/118/30 53/117/30
f 55/124/31 52/123/31 51/122/31 56/121/31
o forge_down
v 0.5 -0.4375 0.5
v 0.5 -0.4375 -0.5
v 0.5 -0.5 0.5
v 0.5 -0.5 -0.5
v -0.5 -0.4375 -0.5
v -0.5 -0.4375 0.5
v -0.5 -0.5 -0.5
v -0.5 -0.5 0.5
vt 0 1
vt 1 1
vt 1 0.9375
vt 0 0.9375
vt 0 1
vt 1 1
vt 1 0.9375
vt 0 0.9375
vt 0 1
vt 1 1
vt 1 0.9375
vt 0 0.9375
vt 0 1
vt 1 1
vt 1 0.9375
vt 0 0.9375
vt 0 1
vt 1 1
vt 1 0
vt 0 0
vt 0 1
vt 1 1
vt 1 0
vt 0 0
vn 0 0 -1
vn 1 0 0
vn 0 0 1
vn -1 0 0
vn 0 1 0
vn 0 -1 0
usemtl m_side
f 60/128/32 63/127/32 61/126/32 58/125/32
f 59/132/33 60/131/33 58/130/33 57/129/33
f 64/136/34 59/135/34 57/134/34 62/133/34
f 63/140/35 64/139/35 62/138/35 61/137/35
f 62/144/36 57/143/36 58/142/36 61/141/36
f 63/148/37 60/147/37 59/146/37 64/145/37